<svg width="24" height="24" viewBox="0 0 24 24" fill="none" xmlns="http://www.w3.org/2000/svg">
<path d="M22.8797 3.36C22.753 3.02291 22.5472 2.72114 22.2797 2.48C21.9876 2.24329 21.64 2.08497 21.2697 2.02C21.1597 2.01 21.0597 2 20.9497 2C20.689 1.9995 20.4307 2.05048 20.1897 2.15L2.27071 9.35C1.98421 9.46555 1.72786 9.64496 1.52119 9.87457C1.31452 10.1042 1.16297 10.3779 1.07811 10.675C0.993238 10.972 0.977283 11.2845 1.03146 11.5886C1.08563 11.8928 1.2085 12.1805 1.39071 12.43C1.63473 12.7659 1.97723 13.0175 2.37071 13.15L5.99971 14.41L8.01971 21.06C8.36971 22.002 8.91971 22.208 9.69871 21.46L12.4187 18.47L16.4487 21.58C16.8046 21.8525 17.2404 22.0001 17.6887 22C18.158 21.9987 18.6129 21.8375 18.9782 21.543C19.3436 21.2485 19.5978 20.8383 19.6987 20.38L22.9597 4.43C23.0337 4.07288 23.006 3.70215 22.8797 3.36ZM17.6897 20.01L12.9097 16.33C12.7359 16.1932 12.5209 16.1192 12.2997 16.12H12.2097C11.9599 16.1465 11.7286 16.264 11.5597 16.45L10.6897 17.4L10.9997 15.92L18.0797 8.87C18.2484 8.70132 18.3513 8.47787 18.3697 8.24C18.3876 8.00123 18.3203 7.76383 18.1797 7.57C18.0353 7.38096 17.8307 7.24689 17.5997 7.19C17.5236 7.17838 17.4467 7.1717 17.3697 7.17C17.21 7.17082 17.0526 7.20846 16.9097 7.28L6.74071 12.55L3.03071 11.27L2.99971 11.21L20.9997 3.976L17.7417 19.976L17.7147 20L17.6897 20.01ZM9.09971 15.23L8.78971 16.72L8.01071 14.14L12.0597 12.04L9.36971 14.72C9.23067 14.8591 9.13661 15.0368 9.09971 15.23Z" fill="#58585A"/>
</svg>
