<svg width="24" height="24" viewBox="0 0 24 24" fill="none" xmlns="http://www.w3.org/2000/svg">
<path d="M20.5 3.48591C18.8297 1.82244 16.7054 0.689651 14.3937 0.229797C12.082 -0.230056 9.68604 0.0035201 7.50661 0.901198C5.32718 1.79888 3.46147 3.32064 2.14374 5.2754C0.826006 7.23017 0.115001 9.5308 0.1 11.8884C0.10021 13.9744 0.649266 16.0236 1.692 17.8302L0 24L6.332 22.3435C8.14864 23.3314 10.1904 23.8313 12.2578 23.7941C14.3252 23.757 16.3477 23.1842 18.1277 22.1317C19.9077 21.0792 21.3844 19.5829 22.4137 17.7889C23.4429 15.995 23.9895 13.9648 24 11.8964C24.0034 10.3324 23.6957 8.78332 23.0948 7.3394C22.4939 5.89548 21.6119 4.58556 20.5 3.48591ZM12.048 21.7793C10.2669 21.7786 8.51831 21.3021 6.983 20.3989L6.621 20.1829L2.858 21.1672L3.858 17.5181L3.617 17.146C2.33361 15.0781 1.85511 12.6104 2.27258 10.2125C2.69005 7.81465 3.97434 5.65402 5.88101 4.14187C7.78768 2.62972 10.1836 1.87161 12.6128 2.01183C15.042 2.15206 17.3349 3.18083 19.055 4.90233C20.4425 6.28449 21.3878 8.04805 21.7709 9.9689C22.154 11.8898 21.9576 13.8812 21.2065 15.6901C20.4555 17.499 19.1838 19.0437 17.5531 20.128C15.9223 21.2122 14.0061 21.787 12.048 21.7793ZM17.5 14.3851C17.2 14.2411 15.728 13.5209 15.462 13.4129C15.196 13.3048 14.992 13.2688 14.787 13.5569C14.582 13.845 14.015 14.5292 13.846 14.7212C13.677 14.9133 13.496 14.9493 13.195 14.7933C12.3144 14.4462 11.5019 13.9464 10.795 13.3168C10.1422 12.7136 9.58124 12.0181 9.13 11.2522C8.961 10.9521 9.106 10.7961 9.262 10.64C9.395 10.508 9.562 10.2919 9.709 10.1239C9.8313 9.97452 9.93227 9.80889 10.009 9.63174C10.0477 9.55036 10.0658 9.46068 10.0616 9.37065C10.0574 9.28062 10.0311 9.19301 9.985 9.11558C9.913 8.97154 9.31 7.50711 9.068 6.90693C8.827 6.33076 8.574 6.40678 8.393 6.39077H7.815C7.66304 6.39329 7.5133 6.42772 7.37548 6.49182C7.23767 6.55592 7.11485 6.64827 7.015 6.76289C6.6819 7.08422 6.41833 7.47057 6.24064 7.89799C6.06294 8.3254 5.97491 8.78477 5.982 9.24762C6.07946 10.3689 6.50287 11.4371 7.2 12.3205C8.47996 14.2359 10.238 15.7834 12.3 16.8099C12.8532 17.0529 13.421 17.2613 14 17.4341C14.6095 17.6178 15.2531 17.6589 15.881 17.5541C16.2979 17.4724 16.693 17.3042 17.0407 17.0602C17.3885 16.8162 17.6813 16.5019 17.9 16.1377C18.1033 15.6949 18.1625 15.1994 18.069 14.7212C17.982 14.5892 17.8 14.5292 17.5 14.3851Z" fill="#58585A"/>
</svg>
