<svg width="18" height="19" viewBox="0 0 18 19" fill="none" xmlns="http://www.w3.org/2000/svg">
<path d="M12.1373 6.37025C11.4119 5.64215 10.4564 5.18823 9.4338 5.08591C8.41116 4.98359 7.38469 5.2392 6.52947 5.80915C5.67424 6.37911 5.04323 7.2281 4.74405 8.21133C4.44486 9.19457 4.49604 10.2511 4.88885 11.2009C5.28167 12.1506 5.99178 12.9346 6.89809 13.4192C7.8044 13.9039 8.85076 14.0591 9.85872 13.8584C10.8667 13.6577 11.7738 13.1136 12.4254 12.3188C13.077 11.524 13.4326 10.5277 13.4318 9.5C13.433 8.91874 13.3192 8.34298 13.097 7.80585C12.8749 7.26872 12.5487 6.78083 12.1373 6.37025ZM11.0407 11.5407C10.6378 11.9441 10.1242 12.2189 9.56503 12.3304C9.00585 12.4419 8.42617 12.385 7.89934 12.1669C7.3725 11.9488 6.92218 11.5794 6.60534 11.1054C6.2885 10.6313 6.11938 10.0739 6.11938 9.50375C6.11938 8.93357 6.2885 8.37619 6.60534 7.90215C6.92218 7.4281 7.3725 7.05867 7.89934 6.84061C8.42617 6.62255 9.00585 6.56565 9.56503 6.6771C10.1242 6.78856 10.6378 7.06336 11.0407 7.46675C11.3078 7.73351 11.5193 8.05054 11.6631 8.39953C11.8069 8.74852 11.8801 9.12255 11.8785 9.5C11.8803 10.2643 11.5791 10.9982 11.0407 11.5407ZM14.5125 3.995C14.4189 3.90143 14.3079 3.82721 14.1856 3.77657C14.0634 3.72594 13.9323 3.69987 13.8 3.69987C13.6677 3.69987 13.5366 3.72594 13.4144 3.77657C13.2921 3.82721 13.1811 3.90143 13.0875 3.995C12.9939 4.08857 12.9197 4.19965 12.8691 4.3219C12.8184 4.44415 12.7924 4.57518 12.7924 4.7075C12.7924 4.83982 12.8184 4.97085 12.8691 5.0931C12.9197 5.21535 12.9939 5.32643 13.0875 5.42C13.28 5.60219 13.535 5.70372 13.8 5.70372C14.065 5.70372 14.32 5.60219 14.5125 5.42C14.6985 5.22947 14.8026 4.97376 14.8026 4.7075C14.8026 4.44124 14.6985 4.18553 14.5125 3.995ZM14.5125 3.995C14.4189 3.90143 14.3079 3.82721 14.1856 3.77657C14.0634 3.72594 13.9323 3.69987 13.8 3.69987C13.6677 3.69987 13.5366 3.72594 13.4144 3.77657C13.2921 3.82721 13.1811 3.90143 13.0875 3.995C12.9939 4.08857 12.9197 4.19965 12.8691 4.3219C12.8184 4.44415 12.7924 4.57518 12.7924 4.7075C12.7924 4.83982 12.8184 4.97085 12.8691 5.0931C12.9197 5.21535 12.9939 5.32643 13.0875 5.42C13.28 5.60219 13.535 5.70372 13.8 5.70372C14.065 5.70372 14.32 5.60219 14.5125 5.42C14.6985 5.22947 14.8026 4.97376 14.8026 4.7075C14.8026 4.44124 14.6985 4.18553 14.5125 3.995ZM12.1373 6.37025C11.4119 5.64215 10.4564 5.18823 9.4338 5.08591C8.41116 4.98359 7.38469 5.2392 6.52947 5.80915C5.67424 6.37911 5.04323 7.2281 4.74405 8.21133C4.44486 9.19457 4.49604 10.2511 4.88885 11.2009C5.28167 12.1506 5.99178 12.9346 6.89809 13.4192C7.8044 13.9039 8.85076 14.0591 9.85872 13.8584C10.8667 13.6577 11.7738 13.1136 12.4254 12.3188C13.077 11.524 13.4326 10.5277 13.4318 9.5C13.433 8.91874 13.3192 8.34298 13.097 7.80585C12.8749 7.26872 12.5487 6.78083 12.1373 6.37025ZM11.0407 11.5407C10.6378 11.9441 10.1242 12.2189 9.56503 12.3304C9.00585 12.4419 8.42617 12.385 7.89934 12.1669C7.3725 11.9488 6.92218 11.5794 6.60534 11.1054C6.2885 10.6313 6.11938 10.0739 6.11938 9.50375C6.11938 8.93357 6.2885 8.37619 6.60534 7.90215C6.92218 7.4281 7.3725 7.05867 7.89934 6.84061C8.42617 6.62255 9.00585 6.56565 9.56503 6.6771C10.1242 6.78856 10.6378 7.06336 11.0407 7.46675C11.3078 7.73351 11.5193 8.05054 11.6631 8.39953C11.8069 8.74852 11.8801 9.12255 11.8785 9.5C11.8803 10.2643 11.5791 10.9982 11.0407 11.5407ZM12.1373 6.37025C11.4119 5.64215 10.4564 5.18823 9.4338 5.08591C8.41116 4.98359 7.38469 5.2392 6.52947 5.80915C5.67424 6.37911 5.04323 7.2281 4.74405 8.21133C4.44486 9.19457 4.49604 10.2511 4.88885 11.2009C5.28167 12.1506 5.99178 12.9346 6.89809 13.4192C7.8044 13.9039 8.85076 14.0591 9.85872 13.8584C10.8667 13.6577 11.7738 13.1136 12.4254 12.3188C13.077 11.524 13.4326 10.5277 13.4318 9.5C13.433 8.91874 13.3192 8.34298 13.097 7.80585C12.8749 7.26872 12.5487 6.78083 12.1373 6.37025ZM11.0407 11.5407C10.6378 11.9441 10.1242 12.2189 9.56503 12.3304C9.00585 12.4419 8.42617 12.385 7.89934 12.1669C7.3725 11.9488 6.92218 11.5794 6.60534 11.1054C6.2885 10.6313 6.11938 10.0739 6.11938 9.50375C6.11938 8.93357 6.2885 8.37619 6.60534 7.90215C6.92218 7.4281 7.3725 7.05867 7.89934 6.84061C8.42617 6.62255 9.00585 6.56565 9.56503 6.6771C10.1242 6.78856 10.6378 7.06336 11.0407 7.46675C11.3078 7.73351 11.5193 8.05054 11.6631 8.39953C11.8069 8.74852 11.8801 9.12255 11.8785 9.5C11.8803 10.2643 11.5791 10.9982 11.0407 11.5407ZM14.5125 3.995C14.4189 3.90143 14.3079 3.82721 14.1856 3.77657C14.0634 3.72594 13.9323 3.69987 13.8 3.69987C13.6677 3.69987 13.5366 3.72594 13.4144 3.77657C13.2921 3.82721 13.1811 3.90143 13.0875 3.995C12.9939 4.08857 12.9197 4.19965 12.8691 4.3219C12.8184 4.44415 12.7924 4.57518 12.7924 4.7075C12.7924 4.83982 12.8184 4.97085 12.8691 5.0931C12.9197 5.21535 12.9939 5.32643 13.0875 5.42C13.28 5.60219 13.535 5.70372 13.8 5.70372C14.065 5.70372 14.32 5.60219 14.5125 5.42C14.6985 5.22947 14.8026 4.97376 14.8026 4.7075C14.8026 4.44124 14.6985 4.18553 14.5125 3.995ZM14.5125 3.995C14.4189 3.90143 14.3079 3.82721 14.1856 3.77657C14.0634 3.72594 13.9323 3.69987 13.8 3.69987C13.6677 3.69987 13.5366 3.72594 13.4144 3.77657C13.2921 3.82721 13.1811 3.90143 13.0875 3.995C12.9939 4.08857 12.9197 4.19965 12.8691 4.3219C12.8184 4.44415 12.7924 4.57518 12.7924 4.7075C12.7924 4.83982 12.8184 4.97085 12.8691 5.0931C12.9197 5.21535 12.9939 5.32643 13.0875 5.42C13.28 5.60219 13.535 5.70372 13.8 5.70372C14.065 5.70372 14.32 5.60219 14.5125 5.42C14.6985 5.22947 14.8026 4.97376 14.8026 4.7075C14.8026 4.44124 14.6985 4.18553 14.5125 3.995ZM12.1373 6.37025C11.4119 5.64215 10.4564 5.18823 9.4338 5.08591C8.41116 4.98359 7.38469 5.2392 6.52947 5.80915C5.67424 6.37911 5.04323 7.2281 4.74405 8.21133C4.44486 9.19457 4.49604 10.2511 4.88885 11.2009C5.28167 12.1506 5.99178 12.9346 6.89809 13.4192C7.8044 13.9039 8.85076 14.0591 9.85872 13.8584C10.8667 13.6577 11.7738 13.1136 12.4254 12.3188C13.077 11.524 13.4326 10.5277 13.4318 9.5C13.433 8.91874 13.3192 8.34298 13.097 7.80585C12.8749 7.26872 12.5487 6.78083 12.1373 6.37025ZM11.0407 11.5407C10.6378 11.9441 10.1242 12.2189 9.56503 12.3304C9.00585 12.4419 8.42617 12.385 7.89934 12.1669C7.3725 11.9488 6.92218 11.5794 6.60534 11.1054C6.2885 10.6313 6.11938 10.0739 6.11938 9.50375C6.11938 8.93357 6.2885 8.37619 6.60534 7.90215C6.92218 7.4281 7.3725 7.05867 7.89934 6.84061C8.42617 6.62255 9.00585 6.56565 9.56503 6.6771C10.1242 6.78856 10.6378 7.06336 11.0407 7.46675C11.3078 7.73351 11.5193 8.05054 11.6631 8.39953C11.8069 8.74852 11.8801 9.12255 11.8785 9.5C11.8803 10.2643 11.5791 10.9982 11.0407 11.5407ZM12.1373 6.37025C11.4119 5.64215 10.4564 5.18823 9.4338 5.08591C8.41116 4.98359 7.38469 5.2392 6.52947 5.80915C5.67424 6.37911 5.04323 7.2281 4.74405 8.21133C4.44486 9.19457 4.49604 10.2511 4.88885 11.2009C5.28167 12.1506 5.99178 12.9346 6.89809 13.4192C7.8044 13.9039 8.85076 14.0591 9.85872 13.8584C10.8667 13.6577 11.7738 13.1136 12.4254 12.3188C13.077 11.524 13.4326 10.5277 13.4318 9.5C13.433 8.91874 13.3192 8.34298 13.097 7.80585C12.8749 7.26872 12.5487 6.78083 12.1373 6.37025ZM11.0407 11.5407C10.6378 11.9441 10.1242 12.2189 9.56503 12.3304C9.00585 12.4419 8.42617 12.385 7.89934 12.1669C7.3725 11.9488 6.92218 11.5794 6.60534 11.1054C6.2885 10.6313 6.11938 10.0739 6.11938 9.50375C6.11938 8.93357 6.2885 8.37619 6.60534 7.90215C6.92218 7.4281 7.3725 7.05867 7.89934 6.84061C8.42617 6.62255 9.00585 6.56565 9.56503 6.6771C10.1242 6.78856 10.6378 7.06336 11.0407 7.46675C11.3078 7.73351 11.5193 8.05054 11.6631 8.39953C11.8069 8.74852 11.8801 9.12255 11.8785 9.5C11.8803 10.2643 11.5791 10.9982 11.0407 11.5407ZM14.5125 3.995C14.4189 3.90143 14.3079 3.82721 14.1856 3.77657C14.0634 3.72594 13.9323 3.69987 13.8 3.69987C13.6677 3.69987 13.5366 3.72594 13.4144 3.77657C13.2921 3.82721 13.1811 3.90143 13.0875 3.995C12.9939 4.08857 12.9197 4.19965 12.8691 4.3219C12.8184 4.44415 12.7924 4.57518 12.7924 4.7075C12.7924 4.83982 12.8184 4.97085 12.8691 5.0931C12.9197 5.21535 12.9939 5.32643 13.0875 5.42C13.28 5.60219 13.535 5.70372 13.8 5.70372C14.065 5.70372 14.32 5.60219 14.5125 5.42C14.6985 5.22947 14.8026 4.97376 14.8026 4.7075C14.8026 4.44124 14.6985 4.18553 14.5125 3.995ZM14.5125 3.995C14.4189 3.90143 14.3079 3.82721 14.1856 3.77657C14.0634 3.72594 13.9323 3.69987 13.8 3.69987C13.6677 3.69987 13.5366 3.72594 13.4144 3.77657C13.2921 3.82721 13.1811 3.90143 13.0875 3.995C12.9939 4.08857 12.9197 4.19965 12.8691 4.3219C12.8184 4.44415 12.7924 4.57518 12.7924 4.7075C12.7924 4.83982 12.8184 4.97085 12.8691 5.0931C12.9197 5.21535 12.9939 5.32643 13.0875 5.42C13.28 5.60219 13.535 5.70372 13.8 5.70372C14.065 5.70372 14.32 5.60219 14.5125 5.42C14.6985 5.22947 14.8026 4.97376 14.8026 4.7075C14.8026 4.44124 14.6985 4.18553 14.5125 3.995ZM9 5.06825C7.97471 5.06808 6.98107 5.42335 6.18832 6.07355C5.39557 6.72375 4.85274 7.62866 4.65229 8.63416C4.45184 9.63966 4.60616 10.6836 5.08898 11.5881C5.5718 12.4925 6.35324 13.2017 7.30021 13.5947C8.24719 13.9877 9.30112 14.0403 10.2825 13.7434C11.2639 13.4466 12.112 12.8187 12.6824 11.9668C13.2528 11.1148 13.5103 10.0915 13.4109 9.071C13.3115 8.05054 12.8614 7.0961 12.1373 6.37025C11.7265 5.95638 11.2377 5.62818 10.6992 5.40468C10.1606 5.18118 9.58308 5.06682 9 5.06825ZM11.0407 11.5407C10.6378 11.9441 10.1242 12.2189 9.56503 12.3304C9.00585 12.4419 8.42617 12.385 7.89934 12.1669C7.3725 11.9488 6.92218 11.5794 6.60534 11.1054C6.2885 10.6313 6.11938 10.0739 6.11938 9.50375C6.11938 8.93357 6.2885 8.37619 6.60534 7.90215C6.92218 7.4281 7.3725 7.05867 7.89934 6.84061C8.42617 6.62255 9.00585 6.56565 9.56503 6.6771C10.1242 6.78856 10.6378 7.06336 11.0407 7.46675C11.3078 7.73351 11.5193 8.05054 11.6631 8.39953C11.8069 8.74852 11.8801 9.12255 11.8785 9.5C11.8803 10.2643 11.5791 10.9982 11.0407 11.5407ZM12.8378 0.5H5.16225C3.79417 0.503366 2.48309 1.04833 1.51571 2.01571C0.548326 2.98309 0.0033665 4.29417 0 5.66225L0 13.3378C0.0033665 14.7058 0.548326 16.0169 1.51571 16.9843C2.48309 17.9517 3.79417 18.4966 5.16225 18.5H12.8378C13.5162 18.502 14.1884 18.3698 14.8156 18.1111C15.4428 17.8524 16.0127 17.4722 16.4924 16.9924C16.9722 16.5127 17.3524 15.9428 17.6111 15.3156C17.8698 14.6884 18.002 14.0162 18 13.3378V5.66225C17.9988 4.2935 17.4545 2.98116 16.4867 2.0133C15.5188 1.04545 14.2065 0.501192 12.8378 0.5ZM16.4468 13.52C16.4455 14.427 16.0872 15.297 15.4493 15.9418C15.131 16.2617 14.7524 16.5153 14.3354 16.6879C13.9184 16.8604 13.4713 16.9484 13.02 16.9468H4.98C4.0716 16.9454 3.20079 16.5839 2.55846 15.9415C1.91612 15.2992 1.55464 14.4284 1.55325 13.52V5.48C1.55444 4.57153 1.91585 3.70062 2.55824 3.05824C3.20062 2.41585 4.07153 2.05444 4.98 2.05325H13.02C13.9288 2.05325 14.8004 2.41428 15.4431 3.05692C16.0857 3.69956 16.4468 4.57117 16.4468 5.48V13.52ZM13.8 3.698C13.6008 3.69828 13.4061 3.75767 13.2407 3.86866C13.0752 3.97965 12.9464 4.13724 12.8706 4.32148C12.7948 4.50571 12.7754 4.70831 12.8148 4.90359C12.8542 5.09888 12.9507 5.27808 13.092 5.4185C13.2845 5.60069 13.5395 5.70222 13.8045 5.70222C14.0695 5.70222 14.3245 5.60069 14.517 5.4185C14.6578 5.27712 14.7535 5.09717 14.792 4.90141C14.8305 4.70565 14.81 4.50287 14.7333 4.31871C14.6566 4.13455 14.5269 3.97728 14.3608 3.8668C14.1947 3.75631 13.9995 3.69757 13.8 3.698ZM9 5.06825C7.97471 5.06808 6.98107 5.42335 6.18832 6.07355C5.39557 6.72375 4.85274 7.62866 4.65229 8.63416C4.45184 9.63966 4.60616 10.6836 5.08898 11.5881C5.5718 12.4925 6.35324 13.2017 7.30021 13.5947C8.24719 13.9877 9.30112 14.0403 10.2825 13.7434C11.2639 13.4466 12.112 12.8187 12.6824 11.9668C13.2528 11.1148 13.5103 10.0915 13.4109 9.071C13.3115 8.05054 12.8614 7.0961 12.1373 6.37025C11.7265 5.95638 11.2377 5.62818 10.6992 5.40468C10.1606 5.18118 9.58308 5.06682 9 5.06825ZM11.0407 11.5407C10.6378 11.9441 10.1242 12.2189 9.56503 12.3304C9.00585 12.4419 8.42617 12.385 7.89934 12.1669C7.3725 11.9488 6.92218 11.5794 6.60534 11.1054C6.2885 10.6313 6.11938 10.0739 6.11938 9.50375C6.11938 8.93357 6.2885 8.37619 6.60534 7.90215C6.92218 7.4281 7.3725 7.05867 7.89934 6.84061C8.42617 6.62255 9.00585 6.56565 9.56503 6.6771C10.1242 6.78856 10.6378 7.06336 11.0407 7.46675C11.3078 7.73351 11.5193 8.05054 11.6631 8.39953C11.8069 8.74852 11.8801 9.12255 11.8785 9.5C11.8803 10.2643 11.5791 10.9982 11.0407 11.5407ZM12.1373 6.37025C11.4119 5.64215 10.4564 5.18823 9.4338 5.08591C8.41116 4.98359 7.38469 5.2392 6.52947 5.80915C5.67424 6.37911 5.04323 7.2281 4.74405 8.21133C4.44486 9.19457 4.49604 10.2511 4.88885 11.2009C5.28167 12.1506 5.99178 12.9346 6.89809 13.4192C7.8044 13.9039 8.85076 14.0591 9.85872 13.8584C10.8667 13.6577 11.7738 13.1136 12.4254 12.3188C13.077 11.524 13.4326 10.5277 13.4318 9.5C13.433 8.91874 13.3192 8.34298 13.097 7.80585C12.8749 7.26872 12.5487 6.78083 12.1373 6.37025ZM11.0407 11.5407C10.6378 11.9441 10.1242 12.2189 9.56503 12.3304C9.00585 12.4419 8.42617 12.385 7.89934 12.1669C7.3725 11.9488 6.92218 11.5794 6.60534 11.1054C6.2885 10.6313 6.11938 10.0739 6.11938 9.50375C6.11938 8.93357 6.2885 8.37619 6.60534 7.90215C6.92218 7.4281 7.3725 7.05867 7.89934 6.84061C8.42617 6.62255 9.00585 6.56565 9.56503 6.6771C10.1242 6.78856 10.6378 7.06336 11.0407 7.46675C11.3078 7.73351 11.5193 8.05054 11.6631 8.39953C11.8069 8.74852 11.8801 9.12255 11.8785 9.5C11.8803 10.2643 11.5791 10.9982 11.0407 11.5407ZM14.5125 3.995C14.4189 3.90143 14.3079 3.82721 14.1856 3.77657C14.0634 3.72594 13.9323 3.69987 13.8 3.69987C13.6677 3.69987 13.5366 3.72594 13.4144 3.77657C13.2921 3.82721 13.1811 3.90143 13.0875 3.995C12.9939 4.08857 12.9197 4.19965 12.8691 4.3219C12.8184 4.44415 12.7924 4.57518 12.7924 4.7075C12.7924 4.83982 12.8184 4.97085 12.8691 5.0931C12.9197 5.21535 12.9939 5.32643 13.0875 5.42C13.28 5.60219 13.535 5.70372 13.8 5.70372C14.065 5.70372 14.32 5.60219 14.5125 5.42C14.6985 5.22947 14.8026 4.97376 14.8026 4.7075C14.8026 4.44124 14.6985 4.18553 14.5125 3.995ZM14.5125 3.995C14.4189 3.90143 14.3079 3.82721 14.1856 3.77657C14.0634 3.72594 13.9323 3.69987 13.8 3.69987C13.6677 3.69987 13.5366 3.72594 13.4144 3.77657C13.2921 3.82721 13.1811 3.90143 13.0875 3.995C12.9939 4.08857 12.9197 4.19965 12.8691 4.3219C12.8184 4.44415 12.7924 4.57518 12.7924 4.7075C12.7924 4.83982 12.8184 4.97085 12.8691 5.0931C12.9197 5.21535 12.9939 5.32643 13.0875 5.42C13.28 5.60219 13.535 5.70372 13.8 5.70372C14.065 5.70372 14.32 5.60219 14.5125 5.42C14.6985 5.22947 14.8026 4.97376 14.8026 4.7075C14.8026 4.44124 14.6985 4.18553 14.5125 3.995ZM12.1373 6.37025C11.4119 5.64215 10.4564 5.18823 9.4338 5.08591C8.41116 4.98359 7.38469 5.2392 6.52947 5.80915C5.67424 6.37911 5.04323 7.2281 4.74405 8.21133C4.44486 9.19457 4.49604 10.2511 4.88885 11.2009C5.28167 12.1506 5.99178 12.9346 6.89809 13.4192C7.8044 13.9039 8.85076 14.0591 9.85872 13.8584C10.8667 13.6577 11.7738 13.1136 12.4254 12.3188C13.077 11.524 13.4326 10.5277 13.4318 9.5C13.433 8.91874 13.3192 8.34298 13.097 7.80585C12.8749 7.26872 12.5487 6.78083 12.1373 6.37025ZM11.0407 11.5407C10.6378 11.9441 10.1242 12.2189 9.56503 12.3304C9.00585 12.4419 8.42617 12.385 7.89934 12.1669C7.3725 11.9488 6.92218 11.5794 6.60534 11.1054C6.2885 10.6313 6.11938 10.0739 6.11938 9.50375C6.11938 8.93357 6.2885 8.37619 6.60534 7.90215C6.92218 7.4281 7.3725 7.05867 7.89934 6.84061C8.42617 6.62255 9.00585 6.56565 9.56503 6.6771C10.1242 6.78856 10.6378 7.06336 11.0407 7.46675C11.3078 7.73351 11.5193 8.05054 11.6631 8.39953C11.8069 8.74852 11.8801 9.12255 11.8785 9.5C11.8803 10.2643 11.5791 10.9982 11.0407 11.5407ZM12.1373 6.37025C11.4119 5.64215 10.4564 5.18823 9.4338 5.08591C8.41116 4.98359 7.38469 5.2392 6.52947 5.80915C5.67424 6.37911 5.04323 7.2281 4.74405 8.21133C4.44486 9.19457 4.49604 10.2511 4.88885 11.2009C5.28167 12.1506 5.99178 12.9346 6.89809 13.4192C7.8044 13.9039 8.85076 14.0591 9.85872 13.8584C10.8667 13.6577 11.7738 13.1136 12.4254 12.3188C13.077 11.524 13.4326 10.5277 13.4318 9.5C13.433 8.91874 13.3192 8.34298 13.097 7.80585C12.8749 7.26872 12.5487 6.78083 12.1373 6.37025ZM11.0407 11.5407C10.6378 11.9441 10.1242 12.2189 9.56503 12.3304C9.00585 12.4419 8.42617 12.385 7.89934 12.1669C7.3725 11.9488 6.92218 11.5794 6.60534 11.1054C6.2885 10.6313 6.11938 10.0739 6.11938 9.50375C6.11938 8.93357 6.2885 8.37619 6.60534 7.90215C6.92218 7.4281 7.3725 7.05867 7.89934 6.84061C8.42617 6.62255 9.00585 6.56565 9.56503 6.6771C10.1242 6.78856 10.6378 7.06336 11.0407 7.46675C11.3078 7.73351 11.5193 8.05054 11.6631 8.39953C11.8069 8.74852 11.8801 9.12255 11.8785 9.5C11.8803 10.2643 11.5791 10.9982 11.0407 11.5407ZM14.5125 3.995C14.4189 3.90143 14.3079 3.82721 14.1856 3.77657C14.0634 3.72594 13.9323 3.69987 13.8 3.69987C13.6677 3.69987 13.5366 3.72594 13.4144 3.77657C13.2921 3.82721 13.1811 3.90143 13.0875 3.995C12.9939 4.08857 12.9197 4.19965 12.8691 4.3219C12.8184 4.44415 12.7924 4.57518 12.7924 4.7075C12.7924 4.83982 12.8184 4.97085 12.8691 5.0931C12.9197 5.21535 12.9939 5.32643 13.0875 5.42C13.28 5.60219 13.535 5.70372 13.8 5.70372C14.065 5.70372 14.32 5.60219 14.5125 5.42C14.6985 5.22947 14.8026 4.97376 14.8026 4.7075C14.8026 4.44124 14.6985 4.18553 14.5125 3.995ZM14.5125 3.995C14.4189 3.90143 14.3079 3.82721 14.1856 3.77657C14.0634 3.72594 13.9323 3.69987 13.8 3.69987C13.6677 3.69987 13.5366 3.72594 13.4144 3.77657C13.2921 3.82721 13.1811 3.90143 13.0875 3.995C12.9939 4.08857 12.9197 4.19965 12.8691 4.3219C12.8184 4.44415 12.7924 4.57518 12.7924 4.7075C12.7924 4.83982 12.8184 4.97085 12.8691 5.0931C12.9197 5.21535 12.9939 5.32643 13.0875 5.42C13.28 5.60219 13.535 5.70372 13.8 5.70372C14.065 5.70372 14.32 5.60219 14.5125 5.42C14.6985 5.22947 14.8026 4.97376 14.8026 4.7075C14.8026 4.44124 14.6985 4.18553 14.5125 3.995ZM12.1373 6.37025C11.4119 5.64215 10.4564 5.18823 9.4338 5.08591C8.41116 4.98359 7.38469 5.2392 6.52947 5.80915C5.67424 6.37911 5.04323 7.2281 4.74405 8.21133C4.44486 9.19457 4.49604 10.2511 4.88885 11.2009C5.28167 12.1506 5.99178 12.9346 6.89809 13.4192C7.8044 13.9039 8.85076 14.0591 9.85872 13.8584C10.8667 13.6577 11.7738 13.1136 12.4254 12.3188C13.077 11.524 13.4326 10.5277 13.4318 9.5C13.433 8.91874 13.3192 8.34298 13.097 7.80585C12.8749 7.26872 12.5487 6.78083 12.1373 6.37025ZM11.0407 11.5407C10.6378 11.9441 10.1242 12.2189 9.56503 12.3304C9.00585 12.4419 8.42617 12.385 7.89934 12.1669C7.3725 11.9488 6.92218 11.5794 6.60534 11.1054C6.2885 10.6313 6.11938 10.0739 6.11938 9.50375C6.11938 8.93357 6.2885 8.37619 6.60534 7.90215C6.92218 7.4281 7.3725 7.05867 7.89934 6.84061C8.42617 6.62255 9.00585 6.56565 9.56503 6.6771C10.1242 6.78856 10.6378 7.06336 11.0407 7.46675C11.3078 7.73351 11.5193 8.05054 11.6631 8.39953C11.8069 8.74852 11.8801 9.12255 11.8785 9.5C11.8803 10.2643 11.5791 10.9982 11.0407 11.5407ZM12.1373 6.37025C11.4119 5.64215 10.4564 5.18823 9.4338 5.08591C8.41116 4.98359 7.38469 5.2392 6.52947 5.80915C5.67424 6.37911 5.04323 7.2281 4.74405 8.21133C4.44486 9.19457 4.49604 10.2511 4.88885 11.2009C5.28167 12.1506 5.99178 12.9346 6.89809 13.4192C7.8044 13.9039 8.85076 14.0591 9.85872 13.8584C10.8667 13.6577 11.7738 13.1136 12.4254 12.3188C13.077 11.524 13.4326 10.5277 13.4318 9.5C13.433 8.91874 13.3192 8.34298 13.097 7.80585C12.8749 7.26872 12.5487 6.78083 12.1373 6.37025ZM11.0407 11.5407C10.6378 11.9441 10.1242 12.2189 9.56503 12.3304C9.00585 12.4419 8.42617 12.385 7.89934 12.1669C7.3725 11.9488 6.92218 11.5794 6.60534 11.1054C6.2885 10.6313 6.11938 10.0739 6.11938 9.50375C6.11938 8.93357 6.2885 8.37619 6.60534 7.90215C6.92218 7.4281 7.3725 7.05867 7.89934 6.84061C8.42617 6.62255 9.00585 6.56565 9.56503 6.6771C10.1242 6.78856 10.6378 7.06336 11.0407 7.46675C11.3078 7.73351 11.5193 8.05054 11.6631 8.39953C11.8069 8.74852 11.8801 9.12255 11.8785 9.5C11.8803 10.2643 11.5791 10.9982 11.0407 11.5407ZM14.5125 3.995C14.4189 3.90143 14.3079 3.82721 14.1856 3.77657C14.0634 3.72594 13.9323 3.69987 13.8 3.69987C13.6677 3.69987 13.5366 3.72594 13.4144 3.77657C13.2921 3.82721 13.1811 3.90143 13.0875 3.995C12.9939 4.08857 12.9197 4.19965 12.8691 4.3219C12.8184 4.44415 12.7924 4.57518 12.7924 4.7075C12.7924 4.83982 12.8184 4.97085 12.8691 5.0931C12.9197 5.21535 12.9939 5.32643 13.0875 5.42C13.28 5.60219 13.535 5.70372 13.8 5.70372C14.065 5.70372 14.32 5.60219 14.5125 5.42C14.6985 5.22947 14.8026 4.97376 14.8026 4.7075C14.8026 4.44124 14.6985 4.18553 14.5125 3.995ZM14.5125 3.995C14.4189 3.90143 14.3079 3.82721 14.1856 3.77657C14.0634 3.72594 13.9323 3.69987 13.8 3.69987C13.6677 3.69987 13.5366 3.72594 13.4144 3.77657C13.2921 3.82721 13.1811 3.90143 13.0875 3.995C12.9939 4.08857 12.9197 4.19965 12.8691 4.3219C12.8184 4.44415 12.7924 4.57518 12.7924 4.7075C12.7924 4.83982 12.8184 4.97085 12.8691 5.0931C12.9197 5.21535 12.9939 5.32643 13.0875 5.42C13.28 5.60219 13.535 5.70372 13.8 5.70372C14.065 5.70372 14.32 5.60219 14.5125 5.42C14.6985 5.22947 14.8026 4.97376 14.8026 4.7075C14.8026 4.44124 14.6985 4.18553 14.5125 3.995ZM12.1373 6.37025C11.4119 5.64215 10.4564 5.18823 9.4338 5.08591C8.41116 4.98359 7.38469 5.2392 6.52947 5.80915C5.67424 6.37911 5.04323 7.2281 4.74405 8.21133C4.44486 9.19457 4.49604 10.2511 4.88885 11.2009C5.28167 12.1506 5.99178 12.9346 6.89809 13.4192C7.8044 13.9039 8.85076 14.0591 9.85872 13.8584C10.8667 13.6577 11.7738 13.1136 12.4254 12.3188C13.077 11.524 13.4326 10.5277 13.4318 9.5C13.433 8.91874 13.3192 8.34298 13.097 7.80585C12.8749 7.26872 12.5487 6.78083 12.1373 6.37025ZM11.0407 11.5407C10.6378 11.9441 10.1242 12.2189 9.56503 12.3304C9.00585 12.4419 8.42617 12.385 7.89934 12.1669C7.3725 11.9488 6.92218 11.5794 6.60534 11.1054C6.2885 10.6313 6.11938 10.0739 6.11938 9.50375C6.11938 8.93357 6.2885 8.37619 6.60534 7.90215C6.92218 7.4281 7.3725 7.05867 7.89934 6.84061C8.42617 6.62255 9.00585 6.56565 9.56503 6.6771C10.1242 6.78856 10.6378 7.06336 11.0407 7.46675C11.3078 7.73351 11.5193 8.05054 11.6631 8.39953C11.8069 8.74852 11.8801 9.12255 11.8785 9.5C11.8803 10.2643 11.5791 10.9982 11.0407 11.5407Z" fill="#F7F8F7"/>
</svg>
