<svg width="18" height="19" viewBox="0 0 18 19" fill="none" xmlns="http://www.w3.org/2000/svg">
<path d="M17.1598 3.02C17.0647 2.76719 16.9104 2.54086 16.7098 2.36C16.4907 2.18247 16.23 2.06373 15.9523 2.015C15.8698 2.0075 15.7948 2 15.7123 2C15.5167 1.99963 15.323 2.03786 15.1423 2.1125L1.70304 7.5125C1.48816 7.59916 1.2959 7.73372 1.14089 7.90593C0.985887 8.07814 0.872231 8.28345 0.80858 8.50623C0.744929 8.72901 0.732962 8.96338 0.773592 9.19148C0.814222 9.41958 0.906376 9.6354 1.04304 9.8225C1.22605 10.0744 1.48292 10.2632 1.77804 10.3625L4.49978 11.3075L6.01478 16.295C6.27729 17.0015 6.68979 17.156 7.27403 16.595L9.31403 14.3525L12.3365 16.685C12.6035 16.8894 12.9303 17.0001 13.2665 17C13.6185 16.999 13.9596 16.8781 14.2337 16.6573C14.5077 16.4364 14.6983 16.1287 14.774 15.785L17.2198 3.8225C17.2753 3.55466 17.2545 3.27661 17.1598 3.02ZM13.2673 15.5075L9.68228 12.7475C9.5519 12.6449 9.39068 12.5894 9.22478 12.59H9.15728C8.96993 12.6099 8.79642 12.698 8.66979 12.8375L8.01728 13.55L8.24978 12.44L13.5598 7.1525C13.6863 7.02599 13.7635 6.85841 13.7773 6.68C13.7907 6.50092 13.7402 6.32287 13.6348 6.1775C13.5265 6.03572 13.373 5.93517 13.1998 5.8925C13.1427 5.88379 13.085 5.87878 13.0273 5.8775C12.9075 5.87811 12.7894 5.90635 12.6823 5.96L5.05554 9.9125L2.27304 8.9525L2.24979 8.9075L15.7498 3.482L13.3063 15.482L13.286 15.5L13.2673 15.5075ZM6.82479 11.9225L6.59229 13.04L6.00804 11.105L9.04478 9.53L7.02728 11.54C6.923 11.6443 6.85245 11.7776 6.82479 11.9225Z" fill="#F7F8F7"/>
</svg>
