<svg width="18" height="19" viewBox="0 0 18 19" fill="none" xmlns="http://www.w3.org/2000/svg">
<path fill-rule="evenodd" clip-rule="evenodd" d="M0.465828 0.965828C0.764093 0.667563 1.16863 0.5 1.59044 0.5H16.4096C16.8314 0.5 17.2359 0.667563 17.5342 0.965828C17.8324 1.26409 18 1.66863 18 2.09044V16.9096C18 17.3314 17.8324 17.7359 17.5342 18.0342C17.2359 18.3324 16.8314 18.5 16.4096 18.5H1.59044C1.16863 18.5 0.764094 18.3324 0.465828 18.0342C0.167563 17.7359 0 17.3314 0 16.9096V2.09044C0 1.66863 0.167563 1.26409 0.465828 0.965828ZM1.4449 1.9449C1.4835 1.9063 1.53585 1.88462 1.59044 1.88462H16.4096C16.4641 1.88462 16.5165 1.9063 16.5551 1.9449C16.5937 1.9835 16.6154 2.03585 16.6154 2.09044V16.9096C16.6154 16.9642 16.5937 17.0165 16.5551 17.0551C16.5165 17.0937 16.4642 17.1154 16.4096 17.1154H1.59044C1.53585 17.1154 1.4835 17.0937 1.4449 17.0551C1.4063 17.0165 1.38462 16.9641 1.38462 16.9096V2.09044C1.38462 2.03585 1.4063 1.9835 1.4449 1.9449ZM5.2461 3.73776C4.67774 3.73776 4.217 4.19851 4.217 4.76687C4.217 5.33523 4.67774 5.79598 5.2461 5.79598C5.81446 5.79598 6.27521 5.33523 6.27521 4.76687C6.27521 4.19851 5.81446 3.73776 5.2461 3.73776ZM8.50761 6.77307C8.40884 6.51129 8.15599 6.32511 7.85966 6.32511C7.47731 6.32511 7.16735 6.63506 7.16735 7.01741V13.7444C7.16735 14.1267 7.47731 14.4367 7.85966 14.4367C8.24201 14.4367 8.55196 14.1267 8.55196 13.7444V9.42938C8.55302 8.91947 8.75628 8.43078 9.11716 8.07051C9.47811 7.71019 9.96724 7.50776 10.4772 7.50764C10.9866 7.50871 11.4747 7.71151 11.8349 8.07167C12.1951 8.43185 12.3979 8.92004 12.399 9.42938V13.7444C12.399 14.1267 12.7089 14.4367 13.0913 14.4367C13.4736 14.4367 13.7836 14.1267 13.7836 13.7444L13.7836 9.4277C13.7821 8.55171 13.4334 7.71202 12.814 7.0926C12.1946 6.47318 11.3549 6.12453 10.4789 6.12303C9.77283 6.12303 9.07507 6.35282 8.50761 6.77307ZM5.93841 7.01741C5.93841 6.63506 5.62845 6.32511 5.2461 6.32511C4.86375 6.32511 4.55379 6.63506 4.55379 7.01741V13.7444C4.55379 14.1267 4.86375 14.4367 5.2461 14.4367C5.62845 14.4367 5.93841 14.1267 5.93841 13.7444V7.01741ZM5.60161 4.76687C5.60161 4.96321 5.44244 5.12238 5.2461 5.12238C5.04976 5.12238 4.89059 4.96321 4.89059 4.76687C4.89059 4.57053 5.04976 4.41136 5.2461 4.41136C5.44244 4.41136 5.60161 4.57053 5.60161 4.76687Z" fill="#F7F8F7"/>
</svg>
