<svg width="24" height="24" viewBox="0 0 24 24" fill="none" xmlns="http://www.w3.org/2000/svg">
<path d="M20.5 3.48597C18.8297 1.8225 16.7054 0.689712 14.3937 0.229858C12.082 -0.229995 9.68604 0.00358114 7.50661 0.901259C5.32718 1.79894 3.46147 3.3207 2.14374 5.27546C0.826006 7.23023 0.115001 9.53086 0.1 11.8885C0.10021 13.9745 0.649266 16.0237 1.692 17.8302L0 24.0001L6.332 22.3436C8.14864 23.3315 10.1904 23.8313 12.2578 23.7942C14.3252 23.7571 16.3477 23.1843 18.1277 22.1317C19.9077 21.0792 21.3844 19.5829 22.4137 17.789C23.4429 15.9951 23.9895 13.9648 24 11.8965C24.0034 10.3324 23.6957 8.78338 23.0948 7.33946C22.4939 5.89554 21.6119 4.58562 20.5 3.48597ZM12.048 21.7794C10.2669 21.7787 8.51831 21.3021 6.983 20.399L6.621 20.1829L2.858 21.1672L3.858 17.5181L3.617 17.146C2.33361 15.0782 1.85511 12.6104 2.27258 10.2126C2.69005 7.81471 3.97434 5.65408 5.88101 4.14193C7.78768 2.62978 10.1836 1.87167 12.6128 2.01189C15.042 2.15212 17.3349 3.18089 19.055 4.90239C20.4425 6.28455 21.3878 8.04811 21.7709 9.96897C22.154 11.8898 21.9576 13.8812 21.2065 15.6902C20.4555 17.4991 19.1838 19.0438 17.5531 20.128C15.9223 21.2123 14.0061 21.7871 12.048 21.7794ZM17.5 14.3852C17.2 14.2412 15.728 13.521 15.462 13.4129C15.196 13.3049 14.992 13.2689 14.787 13.557C14.582 13.845 14.015 14.5292 13.846 14.7213C13.677 14.9134 13.496 14.9494 13.195 14.7933C12.3144 14.4463 11.5019 13.9465 10.795 13.3169C10.1422 12.7137 9.58124 12.0181 9.13 11.2523C8.961 10.9522 9.106 10.7961 9.262 10.6401C9.395 10.5081 9.562 10.292 9.709 10.1239C9.8313 9.97458 9.93227 9.80895 10.009 9.6318C10.0477 9.55042 10.0658 9.46075 10.0616 9.37072C10.0574 9.28068 10.0311 9.19307 9.985 9.11564C9.913 8.9716 9.31 7.50717 9.068 6.90699C8.827 6.33082 8.574 6.40684 8.393 6.39084H7.815C7.66304 6.39335 7.5133 6.42778 7.37548 6.49188C7.23767 6.55598 7.11485 6.64833 7.015 6.76295C6.6819 7.08428 6.41833 7.47063 6.24064 7.89805C6.06294 8.32546 5.97491 8.78483 5.982 9.24768C6.07946 10.3689 6.50287 11.4372 7.2 12.3206C8.47996 14.2359 10.238 15.7835 12.3 16.8099C12.8532 17.0529 13.421 17.2614 14 17.4341C14.6095 17.6179 15.2531 17.6589 15.881 17.5541C16.2979 17.4725 16.693 17.3042 17.0407 17.0602C17.3885 16.8162 17.6813 16.502 17.9 16.1377C18.1033 15.695 18.1625 15.1995 18.069 14.7213C17.982 14.5893 17.8 14.5292 17.5 14.3852Z" fill="#F7F8F7"/>
</svg>
