<svg width="18" height="19" viewBox="0 0 18 19" fill="none" xmlns="http://www.w3.org/2000/svg">
<path d="M15.375 3.11443C14.1223 1.86683 12.5291 1.01724 10.7953 0.672348C9.06152 0.327458 7.26453 0.50264 5.62996 1.1759C3.99539 1.84916 2.5961 2.99048 1.6078 4.45655C0.619504 5.92263 0.0862507 7.6481 0.075 9.4163C0.0751576 10.9808 0.48695 12.5177 1.269 13.8726L0 18.5L4.749 17.2576C6.11148 17.9986 7.64276 18.3734 9.19333 18.3456C10.7439 18.3178 12.2607 17.8882 13.5958 17.0988C14.9308 16.3094 16.0383 15.1872 16.8102 13.8417C17.5822 12.4963 17.9921 10.9736 18 9.42231C18.0025 8.24929 17.7718 7.08749 17.3211 6.00455C16.8704 4.92161 16.2089 3.93917 15.375 3.11443ZM9.036 16.8345C7.70017 16.834 6.38873 16.4765 5.23725 15.7992L4.96575 15.6372L2.1435 16.3754L2.8935 13.6386L2.71275 13.3595C1.75021 11.8086 1.39133 9.95779 1.70443 8.15939C2.01754 6.36098 2.98075 4.74052 4.41076 3.6064C5.84076 2.47229 7.63772 1.90371 9.45962 2.00887C11.2815 2.11404 13.0012 2.88562 14.2912 4.17675C15.3318 5.21337 16.0409 6.53604 16.3282 7.97668C16.6155 9.41732 16.4682 10.9109 15.9049 12.2676C15.3416 13.6243 14.3879 14.7828 13.1648 15.596C11.9417 16.4092 10.5046 16.8403 9.036 16.8345ZM13.125 11.2889C12.9 11.1808 11.796 10.6407 11.5965 10.5596C11.397 10.4786 11.244 10.4516 11.0902 10.6677C10.9365 10.8837 10.5112 11.3969 10.3845 11.5409C10.2577 11.685 10.122 11.712 9.89625 11.595C9.23579 11.3347 8.62644 10.9598 8.09625 10.4876C7.60664 10.0352 7.18593 9.51354 6.8475 8.93916C6.72075 8.7141 6.8295 8.59706 6.9465 8.48003C7.04625 8.381 7.1715 8.21895 7.28175 8.09291C7.37347 7.98089 7.4492 7.85667 7.50675 7.7238C7.5358 7.66277 7.54935 7.59551 7.54621 7.52799C7.54307 7.46047 7.52333 7.39476 7.48875 7.33669C7.43475 7.22866 6.9825 6.13033 6.801 5.6802C6.62025 5.24807 6.4305 5.30509 6.29475 5.29308H5.86125C5.74728 5.29497 5.63497 5.32079 5.53161 5.36887C5.42825 5.41694 5.33614 5.4862 5.26125 5.57216C5.01142 5.81316 4.81375 6.10293 4.68048 6.42349C4.54721 6.74405 4.48118 7.08858 4.4865 7.43572C4.5596 8.27666 4.87715 9.07783 5.4 9.7404C6.35997 11.1769 7.67852 12.3376 9.225 13.1074C9.63992 13.2897 10.0657 13.446 10.5 13.5755C10.9571 13.7134 11.4398 13.7442 11.9107 13.6656C12.2234 13.6043 12.5197 13.4781 12.7806 13.2951C13.0414 13.1121 13.2609 12.8764 13.425 12.6033C13.5775 12.2712 13.6218 11.8996 13.5517 11.5409C13.4865 11.4419 13.35 11.3969 13.125 11.2889Z" fill="#F7F8F7"/>
</svg>
